[Header]
FileType HTR
DataType HTRS
FileVersion 1
NumSegments 64
NumFrames 3
DataFrameRate 30
EulerRotationOrder ZYX
CalibrationUnits mm
RotationUnits Degrees
GlobalAxisofGravity Y
BoneLengthAxis Y
ScaleFactor 1.0
[SegmentNames&Hierarchy]
Hips	GLOBAL
Spine	Hips
Spine1	Spine
Spine2	Spine1
Neck	Spine2
Head	Neck
LeftEye	Head
RightEye	Head
LeftShoulder	Spine2
LeftArm	LeftShoulder
LeftForeArm	LeftArm
LeftHand	LeftForeArm
LeftHandThumb1	LeftHand
LeftHandThumb2	LeftHandThumb1
LeftHandThumb3	LeftHandThumb2
LeftHandThumb4	LeftHandThumb3
LeftHandIndex1	LeftHand
LeftHandIndex2	LeftHandIndex1
LeftHandIndex3	LeftHandIndex2
LeftHandIndex4	LeftHandIndex3
LeftHandMiddle1	LeftHand
LeftHandMiddle2	LeftHandMiddle1
LeftHandMiddle3	LeftHandMiddle2
LeftHandMiddle4	LeftHandMiddle3
LeftHandRing1	LeftHand
LeftHandRing2	LeftHandRing1
LeftHandRing3	LeftHandRing2
LeftHandRing4	LeftHandRing3
LeftHandPinky1	LeftHand
LeftHandPinky2	LeftHandPinky1
LeftHandPinky3	LeftHandPinky2
LeftHandPinky4	LeftHandPinky3
RightShoulder	Spine2
RightArm	RightShoulder
RightForeArm	RightArm
RightHand	RightForeArm
RightHandPinky1	RightHand
RightHandPinky2	RightHandPinky1
RightHandPinky3	RightHandPinky2
RightHandPinky4	RightHandPinky3
RightHandRing1	RightHand
RightHandRing2	RightHandRing1
RightHandRing3	RightHandRing2
RightHandRing4	RightHandRing3
RightHandMiddle1	RightHand
RightHandMiddle2	RightHandMiddle1
RightHandMiddle3	RightHandMiddle2
RightHandMiddle4	RightHandMiddle3
RightHandIndex1	RightHand
RightHandIndex2	RightHandIndex1
RightHandIndex3	RightHandIndex2
RightHandIndex4	RightHandIndex3
RightHandThumb1	RightHand
RightHandThumb2	RightHandThumb1
RightHandThumb3	RightHandThumb2
RightHandThumb4	RightHandThumb3
LeftUpLeg	Hips
LeftLeg	LeftUpLeg
LeftFoot	LeftLeg
LeftToeBase	LeftFoot
RightUpLeg	Hips
RightLeg	RightUpLeg
RightFoot	RightLeg
RightToeBase	RightFoot
[BasePosition]
Hips	0	0	0	0	0	0	1
Spine	0	0	0	0	0	0	1
Spine1	0	0	0	0	0	0	1
Spine2	0	0	0	0	0	0	1
Neck	0	0	0	0	0	0	1
Head	0	0	0	0	0	0	1
LeftEye	0	0	0	0	0	0	1
RightEye	0	0	0	0	0	0	1
LeftShoulder	0	0	0	0	0	0	1
LeftArm	0	0	0	0	0	0	1
LeftForeArm	0	0	0	0	0	0	1
LeftHand	0	0	0	0	0	0	1
LeftHandThumb1	0	0	0	0	0	0	1
LeftHandThumb2	0	0	0	0	0	0	1
LeftHandThumb3	0	0	0	0	0	0	1
LeftHandThumb4	0	0	0	0	0	0	1
LeftHandIndex1	0	0	0	0	0	0	1
LeftHandIndex2	0	0	0	0	0	0	1
LeftHandIndex3	0	0	0	0	0	0	1
LeftHandIndex4	0	0	0	0	0	0	1
LeftHandMiddle1	0	0	0	0	0	0	1
LeftHandMiddle2	0	0	0	0	0	0	1
LeftHandMiddle3	0	0	0	0	0	0	1
LeftHandMiddle4	0	0	0	0	0	0	1
LeftHandRing1	0	0	0	0	0	0	1
LeftHandRing2	0	0	0	0	0	0	1
LeftHandRing3	0	0	0	0	0	0	1
LeftHandRing4	0	0	0	0	0	0	1
LeftHandPinky1	0	0	0	0	0	0	1
LeftHandPinky2	0	0	0	0	0	0	1
LeftHandPinky3	0	0	0	0	0	0	1
LeftHandPinky4	0	0	0	0	0	0	1
RightShoulder	0	0	0	0	0	0	1
RightArm	0	0	0	0	0	0	1
RightForeArm	0	0	0	0	0	0	1
RightHand	0	0	0	0	0	0	1
RightHandPinky1	0	0	0	0	0	0	1
RightHandPinky2	0	0	0	0	0	0	1
RightHandPinky3	0	0	0	0	0	0	1
RightHandPinky4	0	0	0	0	0	0	1
RightHandRing1	0	0	0	0	0	0	1
RightHandRing2	0	0	0	0	0	0	1
RightHandRing3	0	0	0	0	0	0	1
RightHandRing4	0	0	0	0	0	0	1
RightHandMiddle1	0	0	0	0	0	0	1
RightHandMiddle2	0	0	0	0	0	0	1
RightHandMiddle3	0	0	0	0	0	0	1
RightHandMiddle4	0	0	0	0	0	0	1
RightHandIndex1	0	0	0	0	0	0	1
RightHandIndex2	0	0	0	0	0	0	1
RightHandIndex3	0	0	0	0	0	0	1
RightHandIndex4	0	0	0	0	0	0	1
RightHandThumb1	0	0	0	0	0	0	1
RightHandThumb2	0	0	0	0	0	0	1
RightHandThumb3	0	0	0	0	0	0	1
RightHandThumb4	0	0	0	0	0	0	1
LeftUpLeg	0	0	0	0	0	0	1
LeftLeg	0	0	0	0	0	0	1
LeftFoot	0	0	0	0	0	0	1
LeftToeBase	0	0	0	0	0	0	1
RightUpLeg	0	0	0	0	0	0	1
RightLeg	0	0	0	0	0	0	1
RightFoot	0	0	0	0	0	0	1
RightToeBase	0	0	0	0	0	0	1
[Hips]
27	-7.054451942	1031.823853	-9.004293442	128.943573	-85.8387146	-132.8235474	1.0
28	-12.30314159	1033.318481	-1.664403439	146.6577606	-83.7869339	-150.3079681	1.0
29	-14.23910522	1033.918945	1.201203823	148.1123047	-82.81044769	-151.6679077	1.0
[Spine]
27	0	101.8159943	1.315000057	3.653168917	1.113310456	3.270806551	1.0
28	0	101.8159943	1.315000057	3.452861309	1.306441069	2.94787097	1.0
29	0	101.8159943	1.315000057	3.367697477	1.381904483	2.807883263	1.0
[Spine1]
27	0	100.8349991	-10.00800037	1.339154124	0.4792902172	0.8550204039	1.0
28	0	100.8349991	-10.00800037	1.21496582	0.3744336665	1.373123646	1.0
29	0	100.8349991	-10.00800037	1.160681844	0.3080450892	1.559331059	1.0
[Spine2]
27	0	91	-13.73399925	1.330123544	0.5172458887	1.13180232	1.0
28	0	91	-13.73399925	1.194171786	0.4011456966	1.448677063	1.0
29	0	91	-13.73399925	1.135434151	0.3307498097	1.562716126	1.0
[Neck]
27	0	166.7169952	-25.16200066	5.660921097	-0.3149244189	0.1665703654	1.0
28	0	166.7169952	-25.16200066	5.63882637	-0.1744632572	0.3619370162	1.0
29	0	166.7169952	-25.16200066	5.625522137	-0.1231399104	0.4447541535	1.0
[Head]
27	0	96.17900085	16.84999847	-7.128661633	-0.3602554202	0.5147085786	1.0
28	0	96.17900085	16.84999847	-7.435053349	0.8759583831	-0.03457681835	1.0
29	0	96.17900085	16.84999847	-7.567393303	1.35313344	-0.2609969079	1.0
[LeftEye]
27	30.6760006	64.09500122	92.83599854	0	0	0	1.0
28	30.6760006	64.09500122	92.83599854	0	0	0	1.0
29	30.6760006	64.09500122	92.83599854	0	0	0	1.0
[RightEye]
27	-30.6760006	64.09500122	92.83499908	0	0	0	1.0
28	-30.6760006	64.09500122	92.83499908	0	0	0	1.0
29	-30.6760006	64.09500122	92.83499908	0	0	0	1.0
[LeftShoulder]
27	45.70400238	109.4599991	-26.28000069	5.204557419	-18.82530975	-17.08283043	1.0
28	45.70400238	109.4599991	-26.28000069	5.336988449	-19.39065933	-17.52856636	1.0
29	45.70400238	109.4599991	-26.28000069	5.396415234	-19.55941963	-17.70214081	1.0
[LeftArm]
27	105.923996	-5.24600029	-22.32099915	15.97192764	-1.363542438	-66.60253143	1.0
28	105.923996	-5.24600029	-22.32099915	16.81137657	-1.113823175	-66.87206268	1.0
29	105.923996	-5.24600029	-22.32099915	17.16713905	-1.022717714	-66.93126678	1.0
[LeftForeArm]
27	278.414978	-0.0009999999311	0	-4.923832421e-06	-2.146847486	-0.000214367712	1.0
28	278.414978	-0.0009999999311	0	-2.370511538e-06	-1.65343082	-0.0002007943403	1.0
29	278.414978	-0.0009999999311	0	3.940561299e-08	-1.459365606	-0.0001884224039	1.0
[LeftHand]
27	283.2879944	0	0	-31.72487259	-4.324834824	-4.511581421	1.0
28	283.2879944	0	0	-32.59030914	-4.492182255	-4.465150833	1.0
29	283.2879944	0	0	-32.95536423	-4.523313046	-4.439664364	1.0
[LeftHandThumb1]
27	24.6609993	-15.75	26.8239994	-0.4889863729	2.201392412	4.818544865	1.0
28	24.6609993	-15.75	26.8239994	-0.4889863729	2.201392412	4.818544865	1.0
29	24.6609993	-15.75	26.8239994	-0.4889863729	2.201392412	4.818544865	1.0
[LeftHandThumb2]
27	32.29800034	-18.64699936	18.64699936	20.27768517	19.31778526	22.94539261	1.0
28	32.29800034	-18.64699936	18.64699936	20.00940704	19.76700592	23.16740799	1.0
29	32.29800034	-18.64699936	18.64699936	19.88580704	19.96444321	23.26738358	1.0
[LeftHandThumb3]
27	26.52600098	-15.31499958	15.31499958	-13.11184311	5.488686562	7.994229317	1.0
28	26.52600098	-15.31499958	15.31499958	-13.1009903	5.518375874	7.982552052	1.0
29	26.52600098	-15.31499958	15.31499958	-13.09529781	5.530992508	7.979804039	1.0
[LeftHandThumb4]
27	19.54599953	-11.28499985	11.28499985	0	0	0	1.0
28	19.54599953	-11.28499985	11.28499985	0	0	0	1.0
29	19.54599953	-11.28499985	11.28499985	0	0	0	1.0
[LeftHandIndex1]
27	91.09299469	-5.170999527	22.60099792	0.04799643531	-0.9330496788	-8.664457321	1.0
28	91.09299469	-5.170999527	22.60099792	0.1153250262	-0.9548653364	-7.933169842	1.0
29	91.09299469	-5.170999527	22.60099792	0.1480600983	-0.9618863463	-7.594498158	1.0
[LeftHandIndex2]
27	36.76399994	0	0	-0.26660496	1.744850039	-17.37305832	1.0
28	36.76399994	0	0	-0.2666065097	1.744851708	-17.37317848	1.0
29	36.76399994	0	0	-0.2666060925	1.744845152	-17.3731842	1.0
[LeftHandIndex3]
27	28.83100128	0	0	-0.05736861005	0.8169773221	-8.034965515	1.0
28	28.83100128	0	0	-0.05737932771	0.8169956803	-8.035070419	1.0
29	28.83100128	0	0	-0.05738701671	0.8170024753	-8.035069466	1.0
[LeftHandIndex4]
27	23.92700005	0	0	0	0	0	1.0
28	23.92700005	0	0	0	0	0	1.0
29	23.92700005	0	0	0	0	0	1.0
[LeftHandMiddle1]
27	95.33399963	0	0	-0.8276532888	2.640309572	-16.20722198	1.0
28	95.33399963	0	0	-0.8051888943	2.569746256	-15.87794209	1.0
29	95.33399963	0	0	-0.7942772508	2.538631201	-15.71738052	1.0
[LeftHandMiddle2]
27	36.98199844	0	0	-0.2692707181	1.753376842	-17.46066284	1.0
28	36.98199844	0	0	-0.2681651413	1.749842286	-17.42451477	1.0
29	36.98199844	0	0	-0.2676083744	1.748048306	-17.40627861	1.0
[LeftHandMiddle3]
27	29.50900078	0	0	-0.3009557724	1.85103786	-18.46816063	1.0
28	29.50900078	0	0	-0.299795717	1.847572207	-18.43226433	1.0
29	29.50900078	0	0	-0.2992100716	1.845824838	-18.41413307	1.0
[LeftHandMiddle4]
27	28.3390007	0	0	0	0	0	1.0
28	28.3390007	0	0	0	0	0	1.0
29	28.3390007	0	0	0	0	0	1.0
[LeftHandRing1]
27	91.04499817	-0.4390000105	-18.65100098	-1.24888885	3.251608372	-22.00957489	1.0
28	91.04499817	-0.4390000105	-18.65100098	-1.205276132	3.37735343	-21.43500137	1.0
29	91.04499817	-0.4390000105	-18.65100098	-1.184951663	3.436641455	-21.16631126	1.0
[LeftHandRing2]
27	31.54000092	0	0	-0.3856218159	2.087369442	-20.93162727	1.0
28	31.54000092	0	0	-0.3851903081	2.086236477	-20.91989517	1.0
29	31.54000092	0	0	-0.3849288821	2.085547209	-20.91278267	1.0
[LeftHandRing3]
27	29.37700081	0	0	-0.2824078202	1.794567943	-17.8850441	1.0
28	29.37700081	0	0	-0.2820335925	1.793412924	-17.87302589	1.0
29	29.37700081	0	0	-0.281807512	1.792718172	-17.86577797	1.0
[LeftHandRing4]
27	26.47500038	0	0	0	0	0	1.0
28	26.47500038	0	0	0	0	0	1.0
29	26.47500038	0	0	0	0	0	1.0
[LeftHandPinky1]
27	80.77799988	-4.887000084	-38.06099701	-1.896216393	4.770745754	-28.01862717	1.0
28	80.77799988	-4.887000084	-38.06099701	-1.768244624	5.170610428	-27.43909836	1.0
29	80.77799988	-4.887000084	-38.06099701	-1.708467245	5.355365276	-27.16538811	1.0
[LeftHandPinky2]
27	36	0	0	-0.2679867744	1.749281645	-17.41897011	1.0
28	36	0	0	-0.2679898143	1.74930644	-17.41897011	1.0
29	36	0	0	-0.2679930031	1.749329209	-17.41897011	1.0
[LeftHandPinky3]
27	21.14200211	0	0	-0.2401940376	1.658122897	-16.48367691	1.0
28	21.14200211	0	0	-0.2406148612	1.659550786	-16.49837875	1.0
29	21.14200211	0	0	-0.2408491373	1.660350561	-16.50660706	1.0
[LeftHandPinky4]
27	19.75699997	0	0	0	0	0	1.0
28	19.75699997	0	0	0	0	0	1.0
29	19.75699997	0	0	0	0	0	1.0
[RightShoulder]
27	-45.70000076	109.4620056	-26.28000069	4.726456165	13.09793186	10.79380131	1.0
28	-45.70000076	109.4620056	-26.28000069	4.829241276	11.88372707	10.02417374	1.0
29	-45.70000076	109.4620056	-26.28000069	4.874132633	11.39120388	9.725038528	1.0
[RightArm]
27	-105.9280014	-5.248000145	-22.32099915	29.80844688	2.315250635	67.2686615	1.0
28	-105.9280014	-5.248000145	-22.32099915	32.46347046	4.024134159	67.85440826	1.0
29	-105.9280014	-5.248000145	-22.32099915	33.45955658	4.713521957	68.14775085	1.0
[RightForeArm]
27	-278.414978	0	0	2.1100916e-06	7.673976421	-2.100898655e-06	1.0
28	-278.414978	0	0	-5.331431794e-07	6.97490263	-3.24601001e-06	1.0
29	-278.414978	0	0	-2.290871407e-06	6.693516731	1.044616397e-06	1.0
[RightHand]
27	-283.2879944	0	0.0009999999311	-20.33769035	1.108739972	3.615468502	1.0
28	-283.2879944	0	0.0009999999311	-20.19888115	1.627993941	5.750046253	1.0
29	-283.2879944	0	0.0009999999311	-20.0767746	1.855683684	6.545358181	1.0
[RightHandPinky1]
27	-80.76699829	-4.885000229	-38.06000137	-1.464041352	-4.783389568	26.15289307	1.0
28	-80.76699829	-4.885000229	-38.06000137	-1.481613874	-4.718153954	26.39789391	1.0
29	-80.76699829	-4.885000229	-38.06000137	-1.489362478	-4.696129799	26.50607491	1.0
[RightHandPinky2]
27	-36	0	0.0009999999311	-0.2117451727	-1.385610938	17.39568901	1.0
28	-36	0	0.0009999999311	-0.2124434263	-1.387833357	17.42450333	1.0
29	-36	0	0.0009999999311	-0.2127612233	-1.388844728	17.43762589	1.0
[RightHandPinky3]
27	-21.14200211	0	0	-0.1909650415	-1.31737709	16.49492836	1.0
28	-21.14200211	0	0	-0.1916163564	-1.319596767	16.52341652	1.0
29	-21.14200211	0	0	-0.1919129342	-1.320615172	16.5364151	1.0
[RightHandPinky4]
27	-19.75699997	0	0	0	0	0	1.0
28	-19.75699997	0	0	0	0	0	1.0
29	-19.75699997	0	0	0	0	0	1.0
[RightHandRing1]
27	-91.03599548	-0.4390000105	-18.65100098	-1.019568801	-2.64778614	20.09093666	1.0
28	-91.03599548	-0.4390000105	-18.65100098	-1.037000895	-2.810288906	20.35386086	1.0
29	-91.03599548	-0.4390000105	-18.65100098	-1.04524374	-2.883106232	20.47788048	1.0
[RightHandRing2]
27	-31.54000092	0	0	-0.3046482205	-1.653405309	20.87851906	1.0
28	-31.54000092	0	0	-0.3060638607	-1.657109022	20.92759705	1.0
29	-31.54000092	0	0	-0.3066895008	-1.658745646	20.94926262	1.0
[RightHandRing3]
27	-29.37700081	0	0	-0.222818017	-1.420523047	17.82839584	1.0
28	-29.37700081	0	0	-0.2240153998	-1.424229622	17.87649536	1.0
29	-29.37700081	0	0	-0.2245449126	-1.425861239	17.89771652	1.0
[RightHandRing4]
27	-26.47500038	0	0	0	0	0	1.0
28	-26.47500038	0	0	0	0	0	1.0
29	-26.47500038	0	0	0	0	0	1.0
[RightHandMiddle1]
27	-95.32500458	0	0	-0.6670386195	-2.105064631	14.42836285	1.0
28	-95.32500458	0	0	-0.6908075213	-2.09190774	14.83113575	1.0
29	-95.32500458	0	0	-0.701726079	-2.087735176	15.01526642	1.0
[RightHandMiddle2]
27	-36.98199844	0	0	-0.2114544958	-1.384684682	17.36423492	1.0
28	-36.98199844	0	0	-0.2126677036	-1.388564944	17.41420746	1.0
29	-36.98199844	0	0	-0.2132343203	-1.390385747	17.43751335	1.0
[RightHandMiddle3]
27	-29.50900078	0	0	-0.2365300953	-1.464460254	18.37334061	1.0
28	-29.50900078	0	0	-0.2378079295	-1.468311191	18.42353058	1.0
29	-29.50900078	0	0	-0.2384026051	-1.470104098	18.44691849	1.0
[RightHandMiddle4]
27	-28.3390007	0	0.0009999999311	0	0	0	1.0
28	-28.3390007	0	0.0009999999311	0	0	0	1.0
29	-28.3390007	0	0.0009999999311	0	0	0	1.0
[RightHandIndex1]
27	-91.08300018	-5.167999744	22.60099792	0.145994395	1.448182106	6.209565163	1.0
28	-91.08300018	-5.167999744	22.60099792	0.1759985983	1.31209898	6.630794525	1.0
29	-91.08300018	-5.167999744	22.60099792	0.1884685606	1.251924396	6.825637341	1.0
[RightHandIndex2]
27	-36.76399994	0	0	-0.2128278166	-1.3890661	17.42072868	1.0
28	-36.76399994	0	0	-0.2128225416	-1.389056683	17.42071915	1.0
29	-36.76399994	0	0	-0.2128172815	-1.389045596	17.42070961	1.0
[RightHandIndex3]
27	-28.83100128	0	0	-0.04591191933	-0.6511631012	8.066594124	1.0
28	-28.83100128	0	0	-0.04591268674	-0.6511682868	8.066598892	1.0
29	-28.83100128	0	0	-0.04591577873	-0.6511731148	8.066605568	1.0
[RightHandIndex4]
27	-23.92700005	0	0	0	0	0	1.0
28	-23.92700005	0	0	0	0	0	1.0
29	-23.92700005	0	0	0	0	0	1.0
[RightHandThumb1]
27	-24.64799881	-15.72700024	26.82600021	-1.658462644	-0.289145112	-4.221315384	1.0
28	-24.64799881	-15.72700024	26.82600021	-1.658462644	-0.289145112	-4.221315384	1.0
29	-24.64799881	-15.72700024	26.82600021	-1.658462644	-0.289145112	-4.221315384	1.0
[RightHandThumb2]
27	-32.29800034	-18.64699936	18.64699936	20.63014221	-22.49756241	-23.14702988	1.0
28	-32.29800034	-18.64699936	18.64699936	21.74582863	-23.46463585	-23.92926788	1.0
29	-32.29800034	-18.64699936	18.64699936	22.25258064	-23.88967323	-24.28244209	1.0
[RightHandThumb3]
27	-26.52600098	-15.31399918	15.31399918	-14.34537125	-7.323561192	-11.11170101	1.0
28	-26.52600098	-15.31399918	15.31399918	-14.4367485	-6.923274994	-11.28732109	1.0
29	-26.52600098	-15.31399918	15.31399918	-14.47828579	-6.743865013	-11.36568832	1.0
[RightHandThumb4]
27	-19.54599953	-11.28499985	11.28499985	0	0	0	1.0
28	-19.54599953	-11.28499985	11.28499985	0	0	0	1.0
29	-19.54599953	-11.28499985	11.28499985	0	0	0	1.0
[LeftUpLeg]
27	82.07800293	-67.51699829	-15.99599934	-8.877409935	16.04806709	8.071775436	1.0
28	82.07800293	-67.51699829	-15.99599934	-8.520770073	16.01839828	7.840759754	1.0
29	82.07800293	-67.51699829	-15.99599934	-8.343751907	16.03670883	7.769799709	1.0
[LeftLeg]
27	0	-443.7049866	2.845999956	11.96623993	-1.499769688	2.28682375	1.0
28	0	-443.7049866	2.845999956	12.27149868	0.7877469659	3.984711647	1.0
29	0	-443.7049866	2.845999956	12.32267475	1.658254623	4.596775055	1.0
[LeftFoot]
27	0	-444.2789917	-29.8219986	2.233901501	0.5505423546	-6.385076523	1.0
28	0	-444.2789917	-29.8219986	1.464001775	0.3316817284	-6.940607071	1.0
29	0	-444.2789917	-29.8219986	1.235634208	0.2963629663	-7.114869118	1.0
[LeftToeBase]
27	0	-87.28699493	107.1060028	-4.947004318	2.690775727e-05	2.593714612e-07	1.0
28	0	-87.28699493	107.1060028	-4.983477592	1.073363819e-05	-8.679132861e-07	1.0
29	0	-87.28699493	107.1060028	-4.98370409	-9.984203643e-06	-1.483295819e-06	1.0
[RightUpLeg]
27	-82.07800293	-67.51699829	-15.99599934	-1.557656169	-11.09790421	3.262032509	1.0
28	-82.07800293	-67.51699829	-15.99599934	-0.4979641736	-10.55543804	3.410298824	1.0
29	-82.07800293	-67.51699829	-15.99599934	-0.03051888198	-10.35263252	3.461065769	1.0
[RightLeg]
27	0	-443.7049866	2.861999989	11.47925377	-8.852542877	-4.500834942	1.0
28	0	-443.7049866	2.861999989	9.095675468	-8.153341293	-4.373188496	1.0
29	0	-443.7049866	2.861999989	8.01850605	-7.773646355	-4.275725365	1.0
[RightFoot]
27	0	-444.2770081	-29.83799934	-5.709887028	-4.196650028	2.82158494	1.0
28	0	-444.2770081	-29.83799934	-4.442554951	-3.277371407	3.118027925	1.0
29	0	-444.2770081	-29.83799934	-3.86766839	-2.986398935	3.223123074	1.0
[RightToeBase]
27	0	-87.28699493	107.1060028	-6.932606697	4.167624502e-05	-2.794847205e-06	1.0
28	0	-87.28699493	107.1060028	-7.155544758	1.754624282e-05	-2.513980917e-07	1.0
29	0	-87.28699493	107.1060028	-7.252613068	-3.173084224e-06	1.572715746e-06	1.0
[EndOfFile]
